<?xml version="1.0" encoding="utf-8"?>
<!-- Generator: Adobe Illustrator 22.1.0, SVG Export Plug-In . SVG Version: 6.00 Build 0)  -->
<svg version="1.1" xmlns="http://www.w3.org/2000/svg" xmlns:xlink="http://www.w3.org/1999/xlink" x="0px" y="0px"
	 viewBox="0 0 1024 1024" style="enable-background:new 0 0 1024 1024;" xml:space="preserve">
<style type="text/css">
	.st0{fill:none;stroke:#FFFFFF;stroke-width:2;stroke-miterlimit:10;}
	.st1{fill:none;stroke:#FFFFFF;stroke-width:2;stroke-miterlimit:10;stroke-dasharray:11.9936,11.9936;}
</style>
<g id="Layer_1">
</g>
<g id="Layer_3">
	<g>
		<g>
			<path class="st0" d="M32,769c1.4,0.9,3.2,1.9,5.2,3"/>
			<path class="st1" d="M48.1,777.1c8.9,3.5,20.4,6.6,33.9,6.9c7.4,0.2,40.5,1,63-21c17.1-16.7,10.5-29.5,32-52
				c7.7-8.1,17.1-18,32-22c13.2-3.6,24-0.7,57,11c51.1,18.1,48.8,19.7,61,22c32.6,6.3,59.8-2.7,76-8c36.7-12.1,59.2-32.3,81-52
				c24.5-22.1,46-41.5,58-75c4.7-13,11.9-33.9,7-60c-7.5-40.3-38-62.5-46-68c-7.4-5-41.8-27.2-86-17c-54.9,12.6-75.4,63.8-77,68
				c-0.8,2-17.7,48.5,6,92c15.3,28.1,40,40.8,89,66c19.4,10,33.6,17.3,55,23c37.5,10.1,69.2,7.9,93,6c20.4-1.6,32.6-2.5,49-8
				c17.9-6,47.3-15.7,64-44c14.7-24.9,11.9-50.9,11-58c-4-32.3-21.3-34.7-27-68c-0.9-5.2-5.9-36.6,10-66c11.7-21.7,29.3-32.1,47-43
				c24.2-14.9,57.9-36.4,100.2-66.1"/>
			<path class="st0" d="M842.1,340.5c1.6-1.1,3.3-2.3,4.9-3.5"/>
		</g>
	</g>
</g>
<g id="Layer_4">
	<path class="st0" d="M813.5,282.4c14.3,8.1,28.6,16.2,42.9,24.2c2.6,14.6,5.2,29.3,7.7,43.9c10.5-6.9,20.9-13.8,31.4-20.7
		c10.6,6.9,21.2,13.8,31.8,20.7c12.3-33.2,24.5-66.4,36.8-99.5C913.9,261.5,863.7,271.9,813.5,282.4z"/>
	<polyline class="st0" points="864.1,350.5 874.9,317.4 964.1,251 856.4,306.6 	"/>
	<line class="st0" x1="895.5" y1="329.9" x2="874.9" y2="317.4"/>
</g>
</svg>
