<?xml version="1.0" encoding="utf-8"?>
<!-- Generator: Adobe Illustrator 22.1.0, SVG Export Plug-In . SVG Version: 6.00 Build 0)  -->
<svg version="1.1" id="Layer_2" xmlns="http://www.w3.org/2000/svg" xmlns:xlink="http://www.w3.org/1999/xlink" x="0px" y="0px"
	 viewBox="0 0 1024 1024" style="enable-background:new 0 0 1024 1024;" xml:space="preserve">
<style type="text/css">
	.st0{fill:#FFFFFF;}
</style>
<g>
	<path class="st0" d="M979.5,511.5c0,24.4-19.8,46.9-23.5,70.3c-3.8,24,8.1,51.5,0.7,74.1c-7.5,23-33.3,38.3-44.1,59.5
		c-11,21.5-8.3,51.3-22.3,70.6c-14.1,19.4-43.4,26-60.3,43c-16.9,16.9-23.6,46.2-43,60.3c-19.3,14.1-49.2,11.4-70.6,22.3
		c-21.2,10.8-36.5,36.6-59.5,44.1c-22.6,7.3-50.1-4.5-74.1-0.7c-23.3,3.7-45.9,23.5-70.3,23.5c-24.4,0-46.9-19.8-70.3-23.5
		c-24-3.8-51.5,8.1-74.1,0.7c-23-7.5-38.3-33.3-59.5-44.1c-21.5-11-51.3-8.3-70.6-22.3c-19.4-14.1-26-43.4-43-60.3
		c-16.9-16.9-46.2-23.6-60.3-43c-14.1-19.3-11.4-49.2-22.3-70.6c-10.8-21.2-36.6-36.5-44.1-59.5c-7.3-22.6,4.5-50.1,0.7-74.1
		c-3.7-23.3-23.5-45.9-23.5-70.3c0-24.4,19.8-46.9,23.5-70.3c3.8-24-8.1-51.5-0.7-74.1c7.5-23,33.3-38.3,44.1-59.5
		c11-21.5,8.3-51.3,22.3-70.6c14.1-19.4,43.4-26,60.3-43c16.9-16.9,23.6-46.2,43-60.3c19.3-14.1,49.2-11.4,70.6-22.3
		c21.2-10.8,36.5-36.6,59.5-44.1c22.6-7.3,50.1,4.5,74.1,0.7c23.3-3.7,45.9-23.5,70.3-23.5c24.4,0,46.9,19.8,70.3,23.5
		c24,3.8,51.5-8.1,74.1-0.7c23,7.5,38.3,33.3,59.5,44.1c21.5,11,51.3,8.3,70.6,22.3c19.4,14.1,26,43.4,43,60.3
		c16.9,16.9,46.2,23.6,60.3,43c14.1,19.3,11.4,49.2,22.3,70.6c10.8,21.2,36.6,36.5,44.1,59.5c7.3,22.6-4.5,50.1-0.7,74.1
		C959.7,464.6,979.5,487.1,979.5,511.5z"/>
</g>
</svg>
